<svg height="487pt" viewBox="-3 0 487 487.264" width="487pt" xmlns="http://www.w3.org/2000/svg"><path d="m88.132812 295.265625 64 24v88h40v-112l-48-16v-96h80c17.671876 0 32-14.328125 32-32v-8h-216c-17.675781 0-32 14.324219-32 32v88c0 8.835937 7.164063 16 16 16h24v160h40zm0 0" fill="#d80027"/><path d="m136.132812 79.265625c0 22.089844-17.910156 40-40 40-22.09375 0-40-17.910156-40-40 0-22.09375 17.90625-40 40-40 22.089844 0 40 17.90625 40 40zm0 0" fill="#d80027"/><path d="m408.132812 319.265625v-200h40l-64-104-64 104h40v200zm0 0" fill="#7ed63e"/><path d="m8.132812 439.265625h128v48h-128zm0 0" fill="#ffcd00"/><path d="m296.132812 359.265625h176v128h-176zm0 0" fill="#d80027"/><path d="m136.132812 407.265625h160v80h-160zm0 0" fill="#2488ff"/><path d="m96.132812 127.265625c-26.511718 0-48-21.492187-48-48 0-26.511719 21.488282-48 48-48 26.507813 0 48 21.488281 48 48-.027343 26.496094-21.503906 47.972656-48 48zm0-80c-17.675781 0-32 14.324219-32 32 0 17.671875 14.324219 32 32 32 17.671876 0 32-14.328125 32-32 0-17.675781-14.328124-32-32-32zm0 0"/><path d="m288.132812 351.265625v48h-88v-109.769531l-48-16v-82.230469h72c22.078126-.027344 39.972657-17.921875 40-40v-16h-224c-22.082031.023437-39.972656 17.917969-40 40v88c0 13.253906 10.746094 24 24 24h16v144h-40v56h16v-40h112v40h16v-72h144v72h16v-120h160v120h16v-136zm-248-168v88h-16c-4.417968 0-8-3.582031-8-8v-88c0-13.257813 10.746094-24 24-24h208c0 13.253906-10.746093 24-24 24h-88v109.765625l48 16v98.234375h-24v-85.546875l-80-30v147.546875h-24v-248zm88 216v32h-32v-124.457031l48 18v74.457031zm0 0"/><path d="m352.132812 327.265625h64v-200h46.320313l-78.320313-127.265625-78.320312 127.265625h46.320312zm-17.679687-216 49.679687-80.738281 49.679688 80.738281h-33.679688v200h-32v-200zm0 0"/></svg>